<svg xmlns="http://www.w3.org/2000/svg" viewBox="0 -0.00941423 360 320">
	<path d="M 180 142 C 163.7 110.3 119.3 51.2 78 22 C 38.5 -5.9 23.4 -1 13.5 3.4 C 2.1 8.6 0 26.2 0 36.5 C 0 46.9 5.7 121.3 9.4 133.7 C 21.6 174.7 65.1 188.6 105.1 184.2 C 107.2 183.9 109.2 183.6 111.3 183.3 C 109.3 183.6 107.2 183.9 105.1 184.2 C 46.4 192.8 -5.7 214.2 62.7 290.3 C 137.8 368.2 165.7 273.6 180 225.7 C 194.3 273.6 210.8 364.8 296 290.3 C 360 225.7 313.6 192.8 254.9 184.2 C 252.8 183.9 250.7 183.6 248.7 183.3 C 250.8 183.6 252.8 183.9 254.9 184.2 C 294.9 188.6 338.4 174.7 350.6 133.7 C 354.3 121.3 360 46.9 360 36.5 C 360 26.2 357.9 8.6 346.5 3.4 C 336.6 -1 321.5 -5.9 282 22 C 240.7 51.2 196.3 110.3 180 142"/>
</svg>
